# xmcd
#
# Track frame offsets:
#	150
#	16551
#	30556
#	38871
#	52841
#	80521
#	97459
#	109054
#	126027
#	140966
#	157597
#	168767
#	186597
#	203159
#	218724
#	230647
#	249159
#
# Disc length: 3471 seconds
#
# Revision: 1
# Processed by: cddbd v1.5.2PL0 Copyright (c) Steve Scherf et al.
# Submitted via: audiograbber 1.83.01
#
DISCID=de0d8d11
DTITLE=Various Artist - Circuit Rider Records Vol.42
DYEAR=1900
DGENRE=
TTITLE0=Melanie Walker - I Wonder
TTITLE1=Joe Babcock - Brand Of The Cross
TTITLE2=Mary McCain - The Sweet Holy Spirit
TTITLE3=The McAtees - He Leads The Way
TTITLE4=Jennifer MaHan - You Chose Me
TTITLE5=The Dennis Family - Thank You Lord
TTITLE6=James Windrow - Praise The Lord
TTITLE7=The Marksmen - Andrew
TTITLE8=Ron Hughes - God Created Christian Cowboys
TTITLE9=Annette Carroll - Coveredb By The Blood
TTITLE10=Joe Ables - Oh What A Time
TTITLE11=Dobbie Poyner - Till Our Paths Cross Again
TTITLE12=Harvey Perdue - The Cherokee From Tennessee
TTITLE13=Gary Smith - Katies Song
TTITLE14=Rick Wingerter - I've Got Jesus
TTITLE15=W.C. Taylor - Stone At My Tomb
TTITLE16=The Flowers Family - I Want To Go To Glory
EXTD=
EXTT0=
EXTT1=
EXTT2=
EXTT3=
EXTT4=
EXTT5=
EXTT6=
EXTT7=
EXTT8=
EXTT9=
EXTT10=
EXTT11=
EXTT12=
EXTT13=
EXTT14=
EXTT15=
EXTT16=
PLAYORDER=
